<?xml version="1.0" encoding="UTF-8" standalone="no"?>
<svg width="110px" height="110px" viewBox="0 0 110 110" version="1.1" xmlns="http://www.w3.org/2000/svg" xmlns:xlink="http://www.w3.org/1999/xlink" xmlns:sketch="http://www.bohemiancoding.com/sketch/ns">
    <!-- Generator: Sketch 3.2.2 (9983) - http://www.bohemiancoding.com/sketch -->
    <title>blogPost 2</title>
    <desc>Created with Sketch.</desc>
    <defs>
        <filter x="-50%" y="-50%" width="200%" height="200%" filterUnits="objectBoundingBox" id="filter-1">
            <feOffset dx="0" dy="-4" in="SourceAlpha" result="shadowOffsetOuter1"></feOffset>
            <feGaussianBlur stdDeviation="1" in="shadowOffsetOuter1" result="shadowBlurOuter1"></feGaussianBlur>
            <feColorMatrix values="0 0 0 0 0   0 0 0 0 0   0 0 0 0 0  0 0 0 0.0815160779 0" in="shadowBlurOuter1" type="matrix" result="shadowMatrixOuter1"></feColorMatrix>
            <feMerge>
                <feMergeNode in="shadowMatrixOuter1"></feMergeNode>
                <feMergeNode in="SourceGraphic"></feMergeNode>
            </feMerge>
        </filter>
    </defs>
    <g id="Page-1" stroke="none" stroke-width="1" fill="none" fill-rule="evenodd" sketch:type="MSPage">
        <g id="blogPost-2" sketch:type="MSArtboardGroup" transform="translate(-1830.000000, -7178.000000)">
            <g id="Group" sketch:type="MSLayerGroup" transform="translate(0.000000, 7101.000000)">
                <rect id="Rectangle-29" opacity="0.970000029" fill="#FFFFFF" filter="url(#filter-1)" sketch:type="MSShapeGroup" x="0" y="0" width="3760" height="245"></rect>
                <g id="icon-back-home" transform="translate(1830.000000, 77.000000)" sketch:type="MSShapeGroup">
                    <g id="Group" transform="translate(0.000000, 17.000000)">
                        <path d="M0,0 L80,0 L80,10 L0,10 L0,0 Z M0,24 L80,24 L80,34 L0,34 L0,24 Z M0,48 L80,48 L80,58 L0,58 L0,48 Z" id="Rectangle-30" fill="#444444"></path>
                        <circle id="Oval-5" fill="#FFFFFF" cx="77.5" cy="47.5" r="38.5"></circle>
                        <circle id="Oval-6" stroke="#444444" stroke-width="6" fill="#444444" cx="78" cy="48" r="29"></circle>
                        <path d="M77,42.6683571 L77,38.4642857 C77,38.0437143 76.84075,37.6231429 76.523875,37.3011429 C76.207,36.9807857 75.791,36.8214286 75.375,36.8214286 C74.959,36.8214286 74.543,36.9807857 74.226125,37.3011429 L64,47.5 L74.226125,57.6972143 C74.543,58.0175714 74.959,58.1785714 75.375,58.1785714 C75.791,58.1785714 76.207,58.0175714 76.523875,57.6972143 C76.84075,57.3768571 77,56.9546429 77,56.5357143 L77,52.4466429 C81.46875,52.5583571 86.351875,53.3765 90,59 L90,57.3571429 C90,49.7457857 84.3125,43.4865 77,42.6683571 L77,42.6683571 Z" id="Shape" fill="#FFFFFF"></path>
                    </g>
                </g>
            </g>
        </g>
    </g>
</svg>